PathFileType	4	(X/Y/Z)	C:/Users/beibeiliu/ov580/test_trc/User2\sequence.33_training_dense_right.trc
DataRate	CameraRate	NumFrames	NumMarkers	Units	OrigDataRate	OrigDataStartFrame	OrigNumFrames
120	120	20	19	mm	120	213	424
Frame#	Time	ThumbCMC			ThumbMCP			ThumbIP			ThumbTip			IndexMCP			IndexPIP			IndexTip			MiddleMCP			MiddlePIP			MiddleTip			RingMCP			RingPIP			RingTip			PinkyMCP			PinkyPIP			PinkyTip			BackHand1			BackHand2			BackHand3	
		X0	Y0	Z0	X1	Y1	Z1	X2	Y2	Z2	X3	Y3	Z3	X4	Y4	Z4	X5	Y5	Z5	X6	Y6	Z6	X7	Y7	Z7	X8	Y8	Z8	X9	Y9	Z9	X10	Y10	Z10	X11	Y11	Z11	X12	Y12	Z12	X13	Y13	Z13	X14	Y14	Z14	X15	Y15	Z15	X16	Y16	Z16	X17	Y17	Z17	X18	Y18	Z18	
212	1.76667	56.1072	-21.0823	59.9876	24.7861	-27.7831	60.6136	-10.0556	-41.384	52.5386	-24.8749	-67.2159	47.132	16.297	-70.6497	7.23321	-6.8317	-81.0631	24.3017	-1.06101	-68.7914	60.5823	21.2497	-95.7514	14.4267	-2.95636	-99.33	37.5641	4.59026	-84.4736	74.1152	28.2276	-113.335	32.5646	10.1205	-106.146	58.328	27.1066	-82.3983	79.0165	40.6303	-119.558	48.8292	25.0736	-105.396	74.3172	44.9846	-81.6346	85.3581	89.5414	-82.1002	32.2976	110.784	-66.5303	53.2422	86.3929	-43.3099	34.8828	
213	1.775	52.7954	-20.9409	65.9034	15.2346	-26.5217	63.6544	-15.5953	-43.345	59.3153	-28.9541	-69.4353	53.7271	11.279	-68.4644	14.6262	-13.8912	-80.7505	33.2587	-5.08918	-67.6397	68.9817	17.4641	-93.2178	20.2229	-8.82915	-100.485	47.72	6.01356	-81.4603	83.681	20.6282	-108.462	36.6357	6.13422	-106.899	63.6527	23.6968	-77.9295	83.4697	36.9118	-117.345	52.6688	22.5114	-105.406	81.3096	38.4306	-80.1131	87.8653	85.386	-80.8977	36.9393	109.179	-65.5148	57.3594	82.0239	-39.8361	40.1613	
214	1.78333	47.721	-19.0091	71.4549	14.5054	-26.4479	72.8474	-21.2641	-43.1224	67.741	-35.0754	-66.4774	66.0226	2.18967	-70.5629	22.5764	-18.1986	-83.4252	43.8256	-7.6166	-68.719	76.1195	8.49702	-92.9225	28.0885	-11.0656	-102.901	56.5892	1.7075	-78.8294	88.8657	15.0827	-109.065	43.7429	1.86054	-105.797	73.9446	20.9021	-80.8703	90.381	32.1352	-119.374	60.1843	19.0946	-102.183	87.3764	37.9874	-78.119	92.8903	76.9054	-84.427	38.0103	103.908	-68.0606	55.8899	75.5709	-43.0936	43.9919	
215	1.79167	42.193	-21.4493	74.1607	6.95192	-28.8586	76.8001	-22.6375	-44.7567	76.934	-38.619	-69.3012	74.8254	-4.09834	-76.6887	31.6435	-23.7487	-86.0186	56.2829	-8.31987	-71.0495	84.7539	0.700442	-95.5531	36.7574	-14.9326	-103.137	66.7836	5.66162	-79.3001	96.1643	14.0031	-113.665	53.104	0.209643	-104.933	82.4946	18.913	-80.5896	94.1337	27.8677	-119.278	65.6905	19.0597	-106.534	95.2084	35.6219	-80.0628	99.9428	71.9518	-81.7556	42.0644	97.8739	-65.0603	57.6047	66.7549	-41.2181	43.0683	
216	1.8	37.0153	-21.2233	78.0486	4.86065	-31.3782	84.4405	-25.5182	-52.0297	84.9285	-40.5851	-75.5349	83.6786	-9.24777	-77.8855	39.1076	-24.9672	-89.6328	65.4379	-6.11274	-74.4043	93.299	0.543019	-97.5331	42.7623	-13.6673	-104.814	79.4106	3.65964	-78.1516	100.082	9.07082	-114.77	59.077	1.52326	-110.796	88.3645	22.8507	-79.6919	97.363	28.2428	-121.024	71.519	19.1812	-104.014	98.9372	41.8205	-79.689	101.75	65.4031	-82.8102	41.9985	93.6522	-67.5672	56.1774	64.0107	-43.9437	48.8769	
217	1.80833	35.919	-24.3205	81.1241	1.45863	-31.6236	89.5933	-29.7847	-54.5309	91.6068	-38.0208	-78.684	93.5342	-13.6958	-80.8117	44.2764	-26.852	-91.4085	74.1838	-4.00667	-73.8972	97.7275	-2.47047	-105.564	50.4477	-12.6576	-109.555	84.4905	10.1207	-80.1193	103.788	9.27355	-118.664	64.0662	4.63915	-114.04	95.32	22.469	-82.9783	101.639	29.6018	-124.411	75.4443	21.8589	-109.396	103.946	37.1414	-81.4348	104.004	65.2939	-85.2668	47.2144	90.7639	-68.0341	55.8374	58.4596	-46.1353	48.8824	
218	1.81667	35.6003	-27.2089	80.9141	0.599889	-37.1114	90.8424	-29.6957	-59.08	95.1073	-39.7914	-83.8478	96.8228	-13.0998	-85.5204	48.255	-23.8953	-94.6872	78.8018	2.25154	-76.3263	98.7924	-2.43909	-107.247	51.1595	-10.5354	-113.518	88.322	12.326	-83.4398	105.766	10.9883	-122.576	66.5905	6.04035	-120.799	96.0485	24.7162	-88.7484	103.59	30.6356	-125.426	74.6965	24.5431	-115.394	106.422	40.0232	-82.5179	102.424	66.808	-85.2442	45.3365	90.9791	-65.0583	55.6257	58.4289	-50.0342	47.7695	
219	1.825	36.8251	-31.0096	81.043	0.108161	-38.2012	91.5184	-28.3806	-62.4048	95.0222	-36.8596	-88.4248	97.7499	-8.53704	-91.0199	49.0256	-18.4024	-99.4681	80.1399	4.15505	-79.4276	96.2932	-0.822309	-113.259	51.0972	-9.65053	-117.539	85.3557	11.3243	-88.4143	104.211	14.7268	-128.101	66.3218	6.63561	-121.511	94.97	25.4493	-90.1721	102.591	30.4296	-129.075	76.7377	24.3467	-116.366	103.833	41.3893	-87.8455	104.264	66.9474	-90.0203	46.1832	90.7861	-67.7446	56.4475	58.8273	-49.2915	49.7321	
220	1.83333	35.5363	-30.9191	77.5623	1.68258	-44.3446	87.2078	-27.049	-64.9576	94.1717	-34.5589	-94.6979	93.1807	-12.0982	-92.6055	46.775	-18.1585	-99.2876	78.9196	6.40752	-77.0405	91.8	1.97123	-117.623	47.8332	-9.58648	-117.566	83.8809	15.4531	-92.6439	99.6101	17.8783	-127.745	59.2935	9.35588	-125.606	92.4201	26.6601	-93.8485	98.7174	33.5267	-130.665	73.7862	28.4284	-116.824	105.352	41.0827	-89.2318	101.522	69.2791	-93.9545	43.9544	93.5397	-68.7019	56.7436	56.6294	-55.4599	44.7524	
221	1.84167	36.2025	-35.579	73.6744	2.51964	-44.257	84.5912	-23.0058	-66.8735	88.2337	-32.3619	-97.7349	86.5045	-7.00164	-97.4094	40.9129	-15.2691	-104.767	69.314	7.07711	-80.0021	85.9165	7.13102	-118.084	40.983	-8.9234	-118.884	76.3808	15.0232	-93.8766	93.119	21.6821	-130.651	54.7961	10.9806	-127.025	87.3854	26.2298	-96.3811	93.0394	39.2511	-137.35	69.9964	27.5312	-121.506	96.1974	45.3167	-94.9367	99.9192	73.4518	-93.2592	39.9947	95.5076	-70.0299	54.207	63.0835	-55.5627	41.4859	
222	1.85	38.2461	-38.6141	68.2876	7.79143	-46.6565	76.3072	-24.9951	-69.7877	76.5421	-31.6845	-96.83	77.2909	-3.10502	-97.3999	32.701	-10.9766	-106.125	61.9779	8.9235	-84.1149	77.6888	10.7356	-117.024	31.0047	-6.47732	-122.011	65.8652	13.7596	-96.9923	85.3984	20.8653	-132.922	47.3098	12.126	-130.081	76.308	31.533	-98.3684	85.4827	38.2442	-139.189	64.0278	28.8587	-121.908	90.4237	42.1595	-96.2085	91.4644	78.1045	-96.735	35.7241	97.5159	-74.6762	49.8251	63.3954	-56.7421	37.1725	
223	1.85833	44.1479	-42.418	62.5639	7.52224	-50.6322	64.6828	-16.9294	-69.6725	65.9268	-28.5892	-102.258	60.5067	3.23734	-95.6814	20.3841	-12.483	-104.79	47.7177	13.6644	-85.8513	68.0003	13.045	-118.701	20.5128	-1.59088	-125.173	54.0694	16.1223	-101.414	74.9956	25.0957	-136.5	36.7799	12.7491	-130.227	64.4796	33.4623	-101.44	76.4883	45.4057	-138.242	50.1673	29.1002	-124.133	79.6001	49.1003	-98.4112	83.6192	81.5654	-95.1191	29.4378	103.137	-75.5432	44.991	72.5489	-56.3127	32.8359	
224	1.86667	46.9123	-40.8834	55.6738	13.3886	-53.7832	53.9058	-13.539	-73.1288	50.5149	-24.8504	-100.513	45.8381	11.0079	-96.8832	7.47529	-5.71116	-107.626	31.6242	13.2364	-88.5761	57.7875	21.6176	-117.286	6.00594	3.18729	-129.144	38.5096	16.4574	-104.394	64.4538	36.4047	-134.586	22.1821	16.6942	-134.518	51.1007	33.4811	-104.018	64.1917	47.2041	-140.715	40.0237	30.2672	-127.907	66.0671	46.1948	-102.997	74.7452	86.8543	-98.9662	23.5292	107.055	-78.5269	44.6748	79.5249	-58.5399	28.378	
225	1.875	50.2756	-42.3463	48.4156	17.2739	-51.5064	45.8484	-9.4961	-73.3249	34.6379	-19.2413	-99.67	28.1398	22.8745	-96.5807	-7.0409	-1.97734	-107.205	14.3957	13.8037	-96.2428	44.2068	31.3764	-116.939	-6.05499	6.30548	-126.983	18.6266	15.5411	-109.975	50.893	40.5893	-136.27	9.37245	20.568	-134.741	31.1136	35.0123	-112.096	56.0577	51.0777	-139.699	26.555	35.4495	-134.489	55.4072	49.4173	-103.295	65.3679	91.0466	-95.4981	18.4728	113.651	-80.1283	42.3392	85.8007	-55.835	24.9832	
226	1.88333	58.21	-43.1387	45.4787	20.8454	-52.6134	32.2925	-3.27835	-70.5355	21.2286	-13.859	-97.8021	8.73461	34.7208	-89.076	-19.4915	10.5165	-109.72	-5.06107	13.5918	-101.947	28.3375	43.1286	-117.236	-17.484	14.1034	-126.648	2.25258	19.1298	-112.569	38.068	49.1812	-132.967	-3.56133	28.6276	-137.482	15.5692	33.9469	-113.476	41.7478	63.7163	-139.011	15.8661	38.2673	-134.466	37.6745	45.9583	-108.743	55.081	102.92	-96.3793	13.3452	117.712	-75.449	41.9808	90.5221	-55.6825	21.935	
227	1.89167	63.9111	-42.6085	38.9884	28.1348	-49.4486	23.9971	6.53452	-70.2721	5.8948	-2.58648	-91.4091	-3.78009	47.8161	-92.2594	-30.1065	20.0773	-108.037	-19.1406	16.464	-101.323	13.151	56.1946	-114.345	-27.4856	24.6341	-125.534	-13.1461	21.4971	-113.557	23.569	60.0907	-130.513	-13.3103	34.4716	-135.06	2.20067	37.7185	-113.304	34.1757	69.5699	-138.424	6.73538	41.9636	-134.212	26.4897	49.2195	-110.931	46.1409	109.887	-93.9993	12.4726	123.899	-74.9816	41.9117	101.617	-55.7853	21.3943	
228	1.9	66.2565	-38.36	28.3959	36.8014	-44.9648	14.3794	16.9171	-65.7726	-7.20412	6.11691	-87.91	-20.6097	62.9979	-87.83	-36.3618	35.397	-104.793	-36.2665	18.5655	-97.2841	-1.25417	70.8344	-109.974	-32.7548	36.5758	-123.443	-25.6675	23.6226	-109.15	9.76844	72.7101	-124.72	-19.8912	42.2637	-134.641	-6.02893	38.8373	-111.215	22.977	79.7859	-139.099	2.40234	48.8854	-137.609	12.2776	46.3282	-109.562	32.9353	117.725	-90.7309	13.273	127.767	-74.7096	41.0368	106.158	-52.2165	14.7231	
229	1.90833	74.1216	-36.2945	26.6763	46.4476	-43.4035	9.39786	24.8181	-59.2006	-15.884	14.1555	-80.1835	-29.1223	74.737	-84.8627	-43.205	46.6238	-101.722	-45.2188	26.8947	-97.1248	-10.6157	79.5136	-103.138	-39.866	43.1731	-120.774	-33.0381	30.2683	-105.205	-0.0578326	77.942	-124.509	-27.4412	48.1674	-130.792	-15.8314	40.9199	-113.476	11.3936	82.4629	-138.184	-4.86282	51.6578	-131.167	3.30323	48.7067	-108.951	25.5992	122.899	-94.4599	10.4262	132.494	-74.5758	43.3985	114.587	-51.2778	15.1542	
230	1.91667	82.6111	-39.2356	22.8639	54.5606	-44.3051	1.92836	33.8109	-56.7486	-21.0072	25.871	-79.3308	-38.4507	84.4532	-80.8566	-47.1907	58.2388	-98.2465	-50.81	33.7148	-93.4854	-24.9222	89.8165	-104.256	-41.8637	51.1739	-115.92	-41.4929	35.027	-104.329	-11.4167	87.0455	-119.791	-29.6133	54.5661	-128.125	-21.3822	45.433	-106.768	6.12209	87.6544	-134.346	-9.38023	55.9507	-131.862	-1.12729	50.634	-111.559	17.09	129.486	-93.3255	14.4629	137.887	-78.3698	45.2528	119.631	-51.0253	16.7959	
231	1.925	85.6241	-34.1139	21.9945	59.1619	-40.0677	-2.39076	39.22	-51.0928	-26.4478	32.848	-74.8109	-43.1055	91.0749	-77.5403	-49.9419	59.4377	-94.4521	-54.4281	39.109	-91.8873	-26.053	95.1424	-103.908	-43.1642	57.658	-114.525	-43.8579	40.621	-104.917	-13.2627	92.2308	-118.585	-31.2734	62.2657	-126.157	-28.0701	49.1677	-110.533	1.23309	95.2947	-135.361	-9.09788	59.9657	-131.202	-3.92664	51.7397	-107.844	12.4295	133.102	-91.4863	12.8343	141.073	-78.859	41.9163	126.342	-54.2872	15.5056	
